<svg xmlns="http://www.w3.org/2000/svg" viewBox="0 0 24 24">
	<style>
    @media (prefers-color-scheme: dark) {
      path {
      	fill: #fff;
      }
    }
  </style>

  <path fill-rule="evenodd" d="M0 12C0 5.373 5.373 0 12 0s12 5.373 12 12-5.373 12-12 12S0 18.627 0 12m11.987-4.744c-2.553 0-4.511 1.71-4.737 3.721a.837.837 0 1 1-1.663-.187c.336-3.003 3.149-5.209 6.4-5.209 1.864 0 3.57.72 4.757 1.895v-.5a.838.838 0 0 1 1.675 0v1.811c0 .833-.675 1.507-1.507 1.507h-2.128a.838.838 0 0 1 0-1.674h.735c-.86-.826-2.11-1.364-3.532-1.364m.026 9.488c2.396 0 4.486-2.04 4.735-4.819a.837.837 0 0 1 1.667.15c-.312 3.49-2.994 6.344-6.402 6.344-1.906 0-3.593-.901-4.757-2.302v.795a.837.837 0 1 1-1.675 0v-2.43c0-.833.675-1.507 1.507-1.507h2.128a.837.837 0 1 1 0 1.674h-.975c.883 1.293 2.263 2.095 3.772 2.095"/>
</svg>
